<?xml version="1.0" standalone="no"?><!DOCTYPE svg PUBLIC "-//W3C//DTD SVG 1.1//EN" "http://www.w3.org/Graphics/SVG/1.1/DTD/svg11.dtd"><svg t="1570186711727" class="icon" viewBox="0 0 1024 1024" version="1.1" xmlns="http://www.w3.org/2000/svg" p-id="694" xmlns:xlink="http://www.w3.org/1999/xlink" width="200" height="200"><defs><style type="text/css"></style></defs><path d="M384 853.333333a42.666667 42.666667 0 0 1 0 85.333334H341.333333a256 256 0 0 1-256-256v-42.666667a42.666667 42.666667 0 0 1 85.333334 0v42.666667a170.666667 170.666667 0 0 0 170.666666 170.666666h42.666667z m-213.333333-341.333333a42.666667 42.666667 0 0 1-85.333334 0V341.333333a256 256 0 0 1 256-256h341.333334a256 256 0 0 1 256 256v341.333334a256 256 0 0 1-256 256h-170.666667a42.666667 42.666667 0 0 1 0-85.333334h170.666667a170.666667 170.666667 0 0 0 170.666666-170.666666V341.333333a170.666667 170.666667 0 0 0-170.666666-170.666666H341.333333a170.666667 170.666667 0 0 0-170.666666 170.666666v170.666667z m426.666666-213.333333a85.333333 85.333333 0 0 0 85.333334 85.333333h25.6c9.386667 0 17.066667 7.68 17.066666 17.066667v51.2a17.066667 17.066667 0 0 1-17.066666 17.066666H682.666667a169.898667 169.898667 0 0 1-85.333334-22.826666V618.666667a149.333333 149.333333 0 1 1-149.333333-149.333334h4.266667c9.386667 0 17.066667 7.68 17.066666 17.066667v51.2a17.066667 17.066667 0 0 1-17.066666 17.066667h-4.266667a64 64 0 1 0 64 64V273.066667c0-9.386667 7.68-17.066667 17.066667-17.066667h51.2c9.386667 0 17.066667 7.68 17.066666 17.066667V298.666667z" p-id="695"></path></svg>