<?xml version="1.0" standalone="no"?><!DOCTYPE svg PUBLIC "-//W3C//DTD SVG 1.1//EN" "http://www.w3.org/Graphics/SVG/1.1/DTD/svg11.dtd"><svg t="1570166450700" class="icon" viewBox="0 0 1024 1024" version="1.1" xmlns="http://www.w3.org/2000/svg" p-id="908" width="200" height="200" xmlns:xlink="http://www.w3.org/1999/xlink"><defs><style type="text/css"></style></defs><path d="M688.5376 474.3168l-255.5904-147.456c-25.8048-15.1552-59.392 4.096-59.392 34.4064v295.7312c0 30.3104 32.768 49.5616 59.392 34.4064l255.5904-147.456c25.8048-15.9744 25.8048-54.4768 0-69.632z"  p-id="909"></path><path d="M512 1000.6528c-271.1552 0-491.52-220.3648-491.52-491.52s220.3648-491.52 491.52-491.52 491.52 220.3648 491.52 491.52-220.3648 491.52-491.52 491.52z m0-893.7472c-221.5936 0-402.2272 180.224-402.2272 402.2272s180.224 402.2272 402.2272 402.2272 402.2272-180.224 402.2272-402.2272-180.6336-402.2272-402.2272-402.2272z"  p-id="910"></path></svg>